<?xml version="1.0" standalone="no"?>
<!DOCTYPE svg PUBLIC "-//W3C//DTD SVG 20010904//EN"
 "http://www.w3.org/TR/2001/REC-SVG-20010904/DTD/svg10.dtd">
<svg version="1.0" xmlns="http://www.w3.org/2000/svg"
 width="512.000000pt" height="512.000000pt" viewBox="0 0 512.000000 512.000000"
 preserveAspectRatio="xMidYMid meet">

<g transform="translate(0.000000,512.000000) scale(0.100000,-0.100000)"
fill="white" stroke="none">
<path d="M2495 5106 c-37 -17 -70 -52 -84 -89 -7 -18 -11 -150 -11 -363 0
-373 1 -381 66 -430 31 -24 47 -29 94 -29 46 0 63 5 92 27 68 52 69 56 66 447
-3 335 -4 351 -24 377 -11 15 -32 37 -46 47 -34 25 -113 32 -153 13z"/>
<path d="M816 4410 c-42 -13 -95 -68 -107 -112 -22 -83 -10 -100 249 -361 131
-131 249 -245 264 -253 15 -8 49 -14 75 -14 90 0 153 63 153 153 0 26 -6 60
-14 75 -8 15 -122 133 -253 264 -196 194 -245 238 -278 247 -46 12 -49 12 -89
1z"/>
<path d="M4206 4405 c-30 -10 -99 -73 -274 -247 -128 -128 -240 -245 -248
-260 -8 -15 -14 -49 -14 -75 0 -90 63 -153 153 -153 26 0 60 6 75 14 15 8 133
122 264 253 202 204 238 244 248 281 21 81 -29 170 -108 192 -46 12 -48 12
-96 -5z"/>
<path d="M2382 3890 c-568 -80 -1015 -501 -1138 -1070 -26 -118 -26 -401 -1
-518 59 -272 181 -496 372 -687 191 -191 415 -313 687 -372 117 -25 400 -25
518 1 271 58 494 179 685 371 191 191 313 415 372 687 13 62 17 127 17 258 0
131 -4 196 -17 258 -59 272 -181 496 -372 687 -187 188 -403 306 -665 366 -98
23 -357 33 -458 19z m349 -325 c490 -85 849 -511 849 -1005 0 -559 -461 -1020
-1020 -1020 -560 0 -1020 460 -1020 1020 0 491 358 917 843 1005 98 18 247 18
348 0z"/>
<path d="M95 2706 c-94 -41 -124 -168 -58 -247 49 -57 60 -59 429 -59 375 0
381 1 432 68 22 29 27 46 27 92 0 47 -5 63 -29 94 -49 65 -56 66 -433 66 -258
-1 -345 -4 -368 -14z"/>
<path d="M4285 2706 c-67 -29 -105 -106 -91 -182 9 -46 73 -111 118 -119 18
-3 185 -5 370 -3 322 3 338 4 364 24 53 39 69 71 69 134 0 63 -16 95 -69 134
-26 20 -41 21 -379 23 -277 2 -358 0 -382 -11z"/>
<path d="M1215 1431 c-16 -10 -134 -124 -262 -252 -197 -200 -233 -240 -243
-276 -30 -116 77 -223 192 -193 37 10 77 45 281 248 131 131 245 249 253 264
21 39 18 117 -6 156 -42 69 -148 95 -215 53z"/>
<path d="M3742 1430 c-18 -11 -41 -34 -52 -52 -24 -39 -27 -117 -6 -156 8 -15
122 -133 253 -264 204 -202 244 -238 281 -248 116 -30 222 76 192 193 -10 36
-46 76 -248 280 -131 131 -249 245 -264 253 -39 21 -117 18 -156 -6z"/>
<path d="M2495 916 c-41 -18 -83 -69 -90 -109 -3 -18 -5 -184 -3 -369 3 -322
4 -338 24 -364 39 -53 71 -69 134 -69 63 0 95 16 134 69 20 26 21 42 24 377 3
390 2 395 -65 446 -41 31 -113 40 -158 19z"/>
</g>
</svg>
