<?xml version="1.0" standalone="no"?>
<!DOCTYPE svg PUBLIC "-//W3C//DTD SVG 20010904//EN"
 "http://www.w3.org/TR/2001/REC-SVG-20010904/DTD/svg10.dtd">
<svg version="1.0" xmlns="http://www.w3.org/2000/svg"
 width="512.000000pt" height="512.000000pt" viewBox="0 0 512.000000 512.000000"
 preserveAspectRatio="xMidYMid meet">

<g transform="translate(0.000000,512.000000) scale(0.100000,-0.100000)"
fill="white" stroke="none">
<path d="M2525 4121 c-11 -5 -29 -19 -40 -31 -18 -20 -20 -39 -23 -233 -2
-116 0 -222 3 -235 17 -67 107 -95 158 -48 35 33 39 61 35 293 -3 201 -3 203
-28 228 -28 27 -74 39 -105 26z"/>
<path d="M1703 3940 c-31 -13 -57 -57 -56 -94 1 -17 41 -116 89 -220 71 -152
94 -192 118 -207 38 -23 49 -23 91 -3 38 18 60 61 52 102 -9 46 -166 375 -190
399 -26 26 -73 36 -104 23z"/>
<path d="M3345 3941 c-11 -5 -28 -17 -37 -28 -26 -29 -188 -380 -188 -408 0
-40 21 -73 55 -90 42 -19 53 -19 91 4 24 15 47 53 114 197 45 99 86 192 91
208 9 31 -7 82 -32 102 -20 17 -71 24 -94 15z"/>
<path d="M1028 3424 c-53 -28 -65 -99 -25 -145 37 -44 299 -261 331 -274 31
-13 75 -6 101 15 8 7 19 27 25 46 18 53 -7 87 -160 216 -203 171 -211 175
-272 142z"/>
<path d="M3985 3417 c-94 -69 -303 -254 -318 -283 -16 -28 -17 -39 -7 -68 13
-40 27 -54 67 -65 45 -13 75 5 229 134 167 141 184 160 184 203 0 44 -14 68
-50 87 -40 21 -70 18 -105 -8z"/>
<path d="M2365 3290 c-80 -15 -223 -59 -300 -92 -248 -109 -473 -324 -598
-573 -44 -87 -88 -227 -106 -335 l-18 -105 -645 -5 c-504 -4 -648 -8 -660 -18
-24 -20 -41 -69 -34 -98 4 -14 18 -37 31 -50 l24 -24 2501 0 2501 0 24 24 c13
13 27 36 31 50 7 29 -10 78 -34 98 -12 10 -156 14 -660 18 l-645 5 -18 105
c-18 108 -62 248 -106 335 -135 268 -397 505 -665 601 -151 54 -220 66 -398
69 -96 2 -197 0 -225 -5z m289 -190 c379 -37 696 -271 847 -623 34 -80 69
-214 69 -264 l0 -33 -1010 0 -1010 0 0 33 c0 50 35 185 70 265 50 118 109 208
197 301 171 183 399 297 636 320 45 5 87 9 92 9 6 1 55 -3 109 -8z"/>
<path d="M638 2684 c-34 -18 -48 -43 -48 -84 0 -41 14 -67 48 -84 37 -19 393
-116 426 -116 17 0 39 11 57 29 49 50 34 135 -29 160 -40 15 -397 111 -413
111 -8 -1 -26 -7 -41 -16z"/>
<path d="M4245 2651 c-93 -26 -183 -51 -198 -55 -76 -19 -103 -112 -48 -167
18 -18 40 -29 57 -29 33 0 389 97 426 116 34 17 48 43 48 84 0 42 -15 67 -50
85 -39 20 -41 20 -235 -34z"/>
<path d="M580 1679 c-65 -26 -81 -110 -31 -160 l29 -29 1982 0 1982 0 29 29
c51 51 33 137 -33 160 -41 15 -3922 14 -3958 0z"/>
<path d="M1115 1181 c-64 -27 -81 -110 -32 -158 l27 -28 1450 0 1450 0 27 28
c38 38 38 96 0 134 l-27 28 -1438 2 c-790 1 -1446 -2 -1457 -6z"/>
</g>
</svg>
