<?xml version="1.0" standalone="no"?>
<!DOCTYPE svg PUBLIC "-//W3C//DTD SVG 20010904//EN"
 "http://www.w3.org/TR/2001/REC-SVG-20010904/DTD/svg10.dtd">
<svg version="1.0" xmlns="http://www.w3.org/2000/svg"
 width="512.000000pt" height="512.000000pt" viewBox="0 0 512.000000 512.000000"
 preserveAspectRatio="xMidYMid meet">

<g transform="translate(0.000000,512.000000) scale(0.100000,-0.100000)"
fill="white" stroke="none">
<path d="M1655 4005 c-14 -13 -25 -34 -25 -47 1 -13 71 -212 158 -442 169
-450 177 -467 236 -452 37 9 66 41 66 74 0 44 -307 854 -331 875 -30 25 -75
22 -104 -8z"/>
<path d="M3461 3957 c-18 -9 -67 -106 -212 -425 -104 -227 -189 -424 -189
-436 0 -12 9 -32 20 -43 49 -53 108 -36 144 41 134 283 356 783 356 800 -1 25
-17 49 -47 64 -27 15 -42 15 -72 -1z"/>
<path d="M2475 3705 l-25 -24 0 -226 0 -226 25 -24 c39 -40 96 -32 120 16 19
36 22 428 3 462 -27 52 -83 62 -123 22z"/>
<path d="M1174 3172 c-33 -5 -58 -39 -58 -78 0 -32 14 -49 154 -189 99 -99
164 -156 181 -160 53 -12 107 41 94 92 -8 35 -288 319 -324 331 -14 4 -36 6
-47 4z"/>
<path d="M3835 3170 c-11 -4 -89 -77 -172 -162 -134 -135 -153 -159 -153 -187
0 -37 38 -81 70 -81 40 0 75 28 218 173 120 122 142 150 142 175 0 44 -9 61
-41 77 -32 17 -36 17 -64 5z"/>
<path d="M2383 2930 c-412 -52 -747 -290 -918 -653 -46 -98 -89 -231 -100
-312 -3 -28 -8 -55 -10 -62 -3 -8 -45 2 -136 32 -178 60 -289 83 -463 94 -157
11 -184 7 -210 -31 -22 -31 -20 -63 7 -91 20 -22 33 -25 177 -36 193 -14 284
-34 525 -116 274 -93 381 -109 680 -102 276 6 336 17 635 117 264 88 358 104
600 104 240 -1 325 -16 610 -109 272 -89 350 -105 545 -112 140 -5 152 -4 175
14 32 27 33 84 3 115 -19 19 -38 22 -170 29 -184 10 -253 24 -469 96 l-172 57
-12 55 c-120 535 -555 895 -1107 915 -65 3 -150 1 -190 -4z m422 -184 c232
-69 436 -216 566 -408 49 -71 111 -200 133 -277 l16 -54 -38 7 c-20 3 -103 11
-185 17 -265 20 -521 -16 -772 -107 -158 -57 -284 -90 -400 -104 -115 -15
-462 -8 -553 11 l-63 13 6 50 c42 325 244 617 533 768 177 94 288 118 507 114
139 -3 172 -7 250 -30z"/>
<path d="M351 2793 c-31 -26 -37 -73 -13 -104 30 -37 833 -403 864 -394 80 25
86 116 9 154 -142 72 -793 361 -813 361 -14 0 -35 -8 -47 -17z"/>
<path d="M4282 2501 c-258 -97 -429 -166 -437 -177 -37 -49 0 -124 61 -124 47
0 856 306 877 331 20 24 22 67 4 90 -14 19 -50 39 -69 39 -7 0 -203 -72 -436
-159z"/>
<path d="M890 1473 c-33 -12 -50 -37 -50 -73 0 -60 27 -76 140 -84 166 -11
232 -31 476 -140 109 -49 232 -75 389 -82 236 -12 399 19 595 111 192 91 378
124 588 104 141 -13 232 -38 375 -105 152 -71 277 -104 430 -111 113 -6 118
-5 142 17 30 28 33 78 7 110 -16 20 -32 24 -123 31 -156 11 -234 31 -407 105
-86 37 -188 76 -227 86 -157 42 -373 47 -546 14 -75 -14 -147 -40 -364 -130
-131 -54 -246 -76 -395 -76 -183 0 -307 30 -518 124 -57 26 -136 55 -175 66
-110 30 -296 48 -337 33z"/>
</g>
</svg>
